<?xml version="1.0" encoding="UTF-8" standalone="no"?>
<svg width="600px" height="600px" viewBox="0 0 600 600" version="1.1" xmlns="http://www.w3.org/2000/svg" xmlns:xlink="http://www.w3.org/1999/xlink" xmlns:sketch="http://www.bohemiancoding.com/sketch/ns">
    <!-- Generator: Sketch 3.1.1 (8761) - http://www.bohemiancoding.com/sketch -->
    <title>xuan</title>
    <desc>Created with Sketch.</desc>
    <defs></defs>
    <g id="Page-1" stroke="none" stroke-width="1" fill="none" fill-rule="evenodd" sketch:type="MSPage">
        <g id="xuan" sketch:type="MSArtboardGroup" fill="#333333">
            <g id="Path-1-+-Path-2-+-Path-3" sketch:type="MSLayerGroup" transform="translate(97.000000, 49.000000)">
                <path d="M237.09375,33.6835937 C247.1875,57.9101561 249.40958,65.9113296 264.488281,80.9960937 C273.856444,90.3680238 281.735777,85.132043 285.183594,100.414062 C288.999677,117.328374 281.639143,127.787984 276.648435,133.792971 C265.699869,146.966654 245.952058,168.829913 235.152344,182.148438 C227.072689,192.112504 221.673298,196.151814 208.328125,191.832031 C195.72166,187.751366 206.739673,169.490241 219.621094,151.851562 C233.011719,133.515625 250.542968,130.656059 246.542969,119.375 C242.542969,108.093941 221.414062,92.109375 214.371094,79.0078125 C207.328125,65.90625 195.006056,46.4294631 204.480469,15.1484373 C214.705112,-18.6095732 228.452908,12.9442359 237.09375,33.6835937 Z" id="Path-1" sketch:type="MSShapeGroup"></path>
                <path d="M5.32421875,261.054687 C10.3809667,255.714003 37.717714,259.711832 50.6816406,254.968751 C58.6455672,249.225671 65.2593612,239.688492 69.5703125,239.121094 C73.8812638,244.553695 70.5727888,251.814974 74.78125,254.96875 C108.600659,255.96724 137.613595,247.556489 191.726562,224.839844 C255.921875,197.890626 320.011719,147.121094 350.613281,165.109375 C355.296875,173 356.791016,183.531249 347.613281,198.890625 C283.320312,265.79297 265.699219,270.308595 206.794922,326.74804 C198.387298,334.803847 194.117187,343.91015 192.117188,356.734375 C215.828125,353.667962 220.685547,352.251947 240.488281,340.921869 C253.318359,335.757806 267.31422,334.519915 272.210938,347.011719 C276.118108,356.979132 276.495541,364.764948 270.003906,376.570312 C261.348757,392.310136 259.880629,391.949543 246.292969,407.014154 C234.319406,420.289219 213.409317,438.180579 218.300781,448.207031 C229.192246,443.233484 236.07447,440.056673 249.347656,435.96679 C263.620843,432.876908 278.205427,426.619346 289.851562,432.660156 C288.339844,462.929681 284.851562,473.367181 249.347656,487.878906 C237.166016,490.8789 233.376096,486.252197 216.828125,488.878906 C200.280154,491.505615 190.956239,495.638321 170.417969,500.035156 C161.119729,502.025724 149.707031,499.03515 143.539062,484.144531 C136.167549,466.348332 145.539062,458.359369 150.707031,448.375 C165.140625,429.578119 164.246094,429.306634 190.929128,415.014159 C198.552118,405.824215 198.811743,400.804543 198.824219,395.40625 C189.726562,395.406244 170.416828,399.714608 160.988281,399.574219 C149.707031,399.406244 130.476562,388.712884 126.957031,373.78125 C130.476562,355.734369 138.181641,347.011712 156.90625,329.550781 C194.313093,294.668435 206.595703,282.552736 241.292969,242.328125 C202.964844,255.169923 195.117187,261.054689 99.328125,293.074219 C84.2132829,298.126676 52.2915679,304.509852 29.7890625,303.367187 C16.031066,302.668564 3.05523849,302.498265 0.39453125,291.476562 C0.733824011,282.45486 -0.361192376,273.115485 5.32421875,261.054687 Z" id="Path-2" sketch:type="MSShapeGroup"></path>
                <path d="M325.236328,405.734375 C331.723263,404.813365 352.176679,424.649261 377.480469,441.357422 C403.158203,458.3125 401.832032,455.033203 425.396487,470.574219 C429.203125,488.636719 411.644532,503.111328 395.386719,503.111328 C381.322121,503.111328 372.402344,489.845703 352.240234,470.574219 C331.064281,450.333676 325.236329,454.407393 311.998047,431.609375 C307.674235,424.163217 316.839844,406.926501 325.236328,405.734375 Z" id="Path-3" sketch:type="MSShapeGroup"></path>
            </g>
        </g>
    </g>
</svg>